<mxfile host="app.diagrams.net" modified="2023-06-21T10:47:04.340Z" agent="Mozilla/5.0 (Macintosh; Intel Mac OS X 10_15_7) AppleWebKit/537.36 (KHTML, like Gecko) Chrome/114.0.0.0 Safari/537.36" etag="L7vLKZKgoZngAjhK56is" version="21.5.0" type="device">
  <diagram name="Page-1" id="HsQVeBU57cm9AmNgMTeK">
    <mxGraphModel dx="1702" dy="1658" grid="1" gridSize="10" guides="1" tooltips="1" connect="1" arrows="1" fold="1" page="1" pageScale="1" pageWidth="850" pageHeight="1100" math="0" shadow="0">
      <root>
        <mxCell id="0" />
        <mxCell id="1" parent="0" />
        <mxCell id="e0a5-YHAyQoJP6cGDVqX-1" value="a" style="ellipse;whiteSpace=wrap;html=1;aspect=fixed;fillColor=#f8cecc;strokeColor=#b85450;" parent="1" vertex="1">
          <mxGeometry x="190" y="80" width="80" height="80" as="geometry" />
        </mxCell>
        <mxCell id="e0a5-YHAyQoJP6cGDVqX-2" value="b" style="ellipse;whiteSpace=wrap;html=1;aspect=fixed;fillColor=#f8cecc;strokeColor=#b85450;" parent="1" vertex="1">
          <mxGeometry x="510" y="80" width="80" height="80" as="geometry" />
        </mxCell>
        <mxCell id="e0a5-YHAyQoJP6cGDVqX-3" value="c" style="ellipse;whiteSpace=wrap;html=1;aspect=fixed;fillColor=#f8cecc;strokeColor=#b85450;" parent="1" vertex="1">
          <mxGeometry x="190" y="350" width="80" height="80" as="geometry" />
        </mxCell>
        <mxCell id="e0a5-YHAyQoJP6cGDVqX-4" value="d" style="ellipse;whiteSpace=wrap;html=1;aspect=fixed;fillColor=#f8cecc;strokeColor=#b85450;" parent="1" vertex="1">
          <mxGeometry x="510" y="350" width="80" height="80" as="geometry" />
        </mxCell>
        <mxCell id="e0a5-YHAyQoJP6cGDVqX-6" value="e" style="ellipse;whiteSpace=wrap;html=1;aspect=fixed;fillColor=#f8cecc;strokeColor=#b85450;" parent="1" vertex="1">
          <mxGeometry x="840" y="80" width="80" height="80" as="geometry" />
        </mxCell>
        <mxCell id="e0a5-YHAyQoJP6cGDVqX-9" value="" style="endArrow=classic;html=1;rounded=0;" parent="1" edge="1">
          <mxGeometry width="50" height="50" relative="1" as="geometry">
            <mxPoint x="229.5" y="170" as="sourcePoint" />
            <mxPoint x="230" y="340" as="targetPoint" />
          </mxGeometry>
        </mxCell>
        <mxCell id="e0a5-YHAyQoJP6cGDVqX-11" value="" style="endArrow=classic;html=1;rounded=0;" parent="1" edge="1">
          <mxGeometry width="50" height="50" relative="1" as="geometry">
            <mxPoint x="550" y="170" as="sourcePoint" />
            <mxPoint x="550" y="330" as="targetPoint" />
          </mxGeometry>
        </mxCell>
        <mxCell id="e0a5-YHAyQoJP6cGDVqX-13" value="" style="endArrow=classic;html=1;rounded=0;" parent="1" edge="1">
          <mxGeometry width="50" height="50" relative="1" as="geometry">
            <mxPoint x="590" y="150" as="sourcePoint" />
            <mxPoint x="810" y="330" as="targetPoint" />
          </mxGeometry>
        </mxCell>
        <mxCell id="e0a5-YHAyQoJP6cGDVqX-14" value="20" style="text;html=1;strokeColor=none;fillColor=none;align=center;verticalAlign=middle;whiteSpace=wrap;rounded=0;" parent="1" vertex="1">
          <mxGeometry x="360" y="490" width="60" height="30" as="geometry" />
        </mxCell>
        <mxCell id="e0a5-YHAyQoJP6cGDVqX-15" value="2" style="text;html=1;strokeColor=none;fillColor=none;align=center;verticalAlign=middle;whiteSpace=wrap;rounded=0;" parent="1" vertex="1">
          <mxGeometry x="365" y="370" width="60" height="30" as="geometry" />
        </mxCell>
        <mxCell id="e0a5-YHAyQoJP6cGDVqX-16" value="1" style="text;html=1;strokeColor=none;fillColor=none;align=center;verticalAlign=middle;whiteSpace=wrap;rounded=0;" parent="1" vertex="1">
          <mxGeometry x="540" y="240" width="60" height="30" as="geometry" />
        </mxCell>
        <mxCell id="e0a5-YHAyQoJP6cGDVqX-17" value="9" style="text;html=1;strokeColor=none;fillColor=none;align=center;verticalAlign=middle;whiteSpace=wrap;rounded=0;" parent="1" vertex="1">
          <mxGeometry x="360" y="90" width="60" height="30" as="geometry" />
        </mxCell>
        <mxCell id="e0a5-YHAyQoJP6cGDVqX-18" value="7" style="text;html=1;strokeColor=none;fillColor=none;align=center;verticalAlign=middle;whiteSpace=wrap;rounded=0;" parent="1" vertex="1">
          <mxGeometry x="180" y="230" width="60" height="30" as="geometry" />
        </mxCell>
        <mxCell id="e0a5-YHAyQoJP6cGDVqX-20" value="1" style="text;html=1;strokeColor=none;fillColor=none;align=center;verticalAlign=middle;whiteSpace=wrap;rounded=0;" parent="1" vertex="1">
          <mxGeometry x="870" y="240" width="60" height="30" as="geometry" />
        </mxCell>
        <mxCell id="e0a5-YHAyQoJP6cGDVqX-21" value="&lt;font style=&quot;font-size: 36px;&quot;&gt;(a,b) -&amp;nbsp; (a,c) - (c,b) - (c,d) - (b,d) - (b,f) - (b,e) - (f,e) - (d,f)&lt;/font&gt;" style="text;html=1;strokeColor=none;fillColor=none;align=center;verticalAlign=middle;whiteSpace=wrap;rounded=0;" parent="1" vertex="1">
          <mxGeometry x="-10" y="540" width="1180" height="30" as="geometry" />
        </mxCell>
        <mxCell id="e0a5-YHAyQoJP6cGDVqX-22" value="" style="endArrow=classic;html=1;rounded=0;" parent="1" edge="1">
          <mxGeometry width="50" height="50" relative="1" as="geometry">
            <mxPoint x="294" y="119.5" as="sourcePoint" />
            <mxPoint x="486" y="119.5" as="targetPoint" />
          </mxGeometry>
        </mxCell>
        <mxCell id="e0a5-YHAyQoJP6cGDVqX-23" value="3" style="text;html=1;strokeColor=none;fillColor=none;align=center;verticalAlign=middle;whiteSpace=wrap;rounded=0;" parent="1" vertex="1">
          <mxGeometry x="690" y="90" width="60" height="30" as="geometry" />
        </mxCell>
        <mxCell id="e0a5-YHAyQoJP6cGDVqX-5" value="f" style="ellipse;whiteSpace=wrap;html=1;aspect=fixed;fillColor=#f8cecc;strokeColor=#b85450;" parent="1" vertex="1">
          <mxGeometry x="840" y="350" width="80" height="80" as="geometry" />
        </mxCell>
        <mxCell id="e0a5-YHAyQoJP6cGDVqX-29" value="" style="endArrow=classic;html=1;rounded=0;" parent="1" edge="1">
          <mxGeometry width="50" height="50" relative="1" as="geometry">
            <mxPoint x="280" y="350" as="sourcePoint" />
            <mxPoint x="500" y="170" as="targetPoint" />
          </mxGeometry>
        </mxCell>
        <mxCell id="e0a5-YHAyQoJP6cGDVqX-30" value="" style="endArrow=classic;html=1;rounded=0;" parent="1" edge="1">
          <mxGeometry width="50" height="50" relative="1" as="geometry">
            <mxPoint x="620" y="119" as="sourcePoint" />
            <mxPoint x="812" y="119" as="targetPoint" />
          </mxGeometry>
        </mxCell>
        <mxCell id="e0a5-YHAyQoJP6cGDVqX-31" value="-2" style="text;html=1;strokeColor=none;fillColor=none;align=center;verticalAlign=middle;whiteSpace=wrap;rounded=0;" parent="1" vertex="1">
          <mxGeometry x="350" y="230" width="60" height="30" as="geometry" />
        </mxCell>
        <mxCell id="e0a5-YHAyQoJP6cGDVqX-32" value="" style="childLayout=tableLayout;recursiveResize=0;shadow=0;fillColor=default;" parent="1" vertex="1">
          <mxGeometry x="50" y="640" width="390" height="197" as="geometry" />
        </mxCell>
        <mxCell id="e0a5-YHAyQoJP6cGDVqX-33" value="" style="shape=tableRow;horizontal=0;startSize=0;swimlaneHead=0;swimlaneBody=0;top=0;left=0;bottom=0;right=0;dropTarget=0;collapsible=0;recursiveResize=0;expand=0;fontStyle=0;fillColor=none;strokeColor=inherit;" parent="e0a5-YHAyQoJP6cGDVqX-32" vertex="1">
          <mxGeometry width="390" height="50" as="geometry" />
        </mxCell>
        <mxCell id="e0a5-YHAyQoJP6cGDVqX-34" value="&lt;font style=&quot;font-size: 24px;&quot;&gt;iteration&lt;/font&gt;" style="connectable=0;recursiveResize=0;strokeColor=inherit;fillColor=none;align=center;whiteSpace=wrap;html=1;" parent="e0a5-YHAyQoJP6cGDVqX-33" vertex="1">
          <mxGeometry width="130" height="50" as="geometry">
            <mxRectangle width="130" height="50" as="alternateBounds" />
          </mxGeometry>
        </mxCell>
        <mxCell id="e0a5-YHAyQoJP6cGDVqX-35" value="&lt;font style=&quot;font-size: 24px;&quot;&gt;a&lt;/font&gt;" style="connectable=0;recursiveResize=0;strokeColor=inherit;fillColor=none;align=center;whiteSpace=wrap;html=1;" parent="e0a5-YHAyQoJP6cGDVqX-33" vertex="1">
          <mxGeometry x="130" width="130" height="50" as="geometry">
            <mxRectangle width="130" height="50" as="alternateBounds" />
          </mxGeometry>
        </mxCell>
        <mxCell id="e0a5-YHAyQoJP6cGDVqX-36" value="&lt;font style=&quot;font-size: 24px;&quot;&gt;b&lt;/font&gt;" style="connectable=0;recursiveResize=0;strokeColor=inherit;fillColor=none;align=center;whiteSpace=wrap;html=1;" parent="e0a5-YHAyQoJP6cGDVqX-33" vertex="1">
          <mxGeometry x="260" width="130" height="50" as="geometry">
            <mxRectangle width="130" height="50" as="alternateBounds" />
          </mxGeometry>
        </mxCell>
        <mxCell id="e0a5-YHAyQoJP6cGDVqX-45" value="" style="shape=tableRow;horizontal=0;startSize=0;swimlaneHead=0;swimlaneBody=0;top=0;left=0;bottom=0;right=0;dropTarget=0;collapsible=0;recursiveResize=0;expand=0;fontStyle=0;fillColor=none;strokeColor=inherit;" parent="e0a5-YHAyQoJP6cGDVqX-32" vertex="1">
          <mxGeometry y="50" width="390" height="49" as="geometry" />
        </mxCell>
        <mxCell id="e0a5-YHAyQoJP6cGDVqX-46" value="0" style="connectable=0;recursiveResize=0;strokeColor=inherit;fillColor=none;align=center;whiteSpace=wrap;html=1;" parent="e0a5-YHAyQoJP6cGDVqX-45" vertex="1">
          <mxGeometry width="130" height="49" as="geometry">
            <mxRectangle width="130" height="49" as="alternateBounds" />
          </mxGeometry>
        </mxCell>
        <mxCell id="e0a5-YHAyQoJP6cGDVqX-47" value="0" style="connectable=0;recursiveResize=0;strokeColor=inherit;fillColor=none;align=center;whiteSpace=wrap;html=1;" parent="e0a5-YHAyQoJP6cGDVqX-45" vertex="1">
          <mxGeometry x="130" width="130" height="49" as="geometry">
            <mxRectangle width="130" height="49" as="alternateBounds" />
          </mxGeometry>
        </mxCell>
        <mxCell id="e0a5-YHAyQoJP6cGDVqX-48" value="infinity" style="connectable=0;recursiveResize=0;strokeColor=inherit;fillColor=none;align=center;whiteSpace=wrap;html=1;" parent="e0a5-YHAyQoJP6cGDVqX-45" vertex="1">
          <mxGeometry x="260" width="130" height="49" as="geometry">
            <mxRectangle width="130" height="49" as="alternateBounds" />
          </mxGeometry>
        </mxCell>
        <mxCell id="e0a5-YHAyQoJP6cGDVqX-37" style="shape=tableRow;horizontal=0;startSize=0;swimlaneHead=0;swimlaneBody=0;top=0;left=0;bottom=0;right=0;dropTarget=0;collapsible=0;recursiveResize=0;expand=0;fontStyle=0;fillColor=none;strokeColor=inherit;" parent="e0a5-YHAyQoJP6cGDVqX-32" vertex="1">
          <mxGeometry y="99" width="390" height="48" as="geometry" />
        </mxCell>
        <mxCell id="e0a5-YHAyQoJP6cGDVqX-38" value="1" style="connectable=0;recursiveResize=0;strokeColor=inherit;fillColor=none;align=center;whiteSpace=wrap;html=1;" parent="e0a5-YHAyQoJP6cGDVqX-37" vertex="1">
          <mxGeometry width="130" height="48" as="geometry">
            <mxRectangle width="130" height="48" as="alternateBounds" />
          </mxGeometry>
        </mxCell>
        <mxCell id="e0a5-YHAyQoJP6cGDVqX-39" value="0" style="connectable=0;recursiveResize=0;strokeColor=inherit;fillColor=none;align=center;whiteSpace=wrap;html=1;" parent="e0a5-YHAyQoJP6cGDVqX-37" vertex="1">
          <mxGeometry x="130" width="130" height="48" as="geometry">
            <mxRectangle width="130" height="48" as="alternateBounds" />
          </mxGeometry>
        </mxCell>
        <mxCell id="e0a5-YHAyQoJP6cGDVqX-40" value="5" style="connectable=0;recursiveResize=0;strokeColor=inherit;fillColor=none;align=center;whiteSpace=wrap;html=1;" parent="e0a5-YHAyQoJP6cGDVqX-37" vertex="1">
          <mxGeometry x="260" width="130" height="48" as="geometry">
            <mxRectangle width="130" height="48" as="alternateBounds" />
          </mxGeometry>
        </mxCell>
        <mxCell id="e0a5-YHAyQoJP6cGDVqX-41" style="shape=tableRow;horizontal=0;startSize=0;swimlaneHead=0;swimlaneBody=0;top=0;left=0;bottom=0;right=0;dropTarget=0;collapsible=0;recursiveResize=0;expand=0;fontStyle=0;fillColor=none;strokeColor=inherit;" parent="e0a5-YHAyQoJP6cGDVqX-32" vertex="1">
          <mxGeometry y="147" width="390" height="50" as="geometry" />
        </mxCell>
        <mxCell id="e0a5-YHAyQoJP6cGDVqX-42" value="2" style="connectable=0;recursiveResize=0;strokeColor=inherit;fillColor=none;align=center;whiteSpace=wrap;html=1;" parent="e0a5-YHAyQoJP6cGDVqX-41" vertex="1">
          <mxGeometry width="130" height="50" as="geometry">
            <mxRectangle width="130" height="50" as="alternateBounds" />
          </mxGeometry>
        </mxCell>
        <mxCell id="e0a5-YHAyQoJP6cGDVqX-43" value="0" style="connectable=0;recursiveResize=0;strokeColor=inherit;fillColor=none;align=center;whiteSpace=wrap;html=1;" parent="e0a5-YHAyQoJP6cGDVqX-41" vertex="1">
          <mxGeometry x="130" width="130" height="50" as="geometry">
            <mxRectangle width="130" height="50" as="alternateBounds" />
          </mxGeometry>
        </mxCell>
        <mxCell id="e0a5-YHAyQoJP6cGDVqX-44" value="5" style="connectable=0;recursiveResize=0;strokeColor=inherit;fillColor=none;align=center;whiteSpace=wrap;html=1;" parent="e0a5-YHAyQoJP6cGDVqX-41" vertex="1">
          <mxGeometry x="260" width="130" height="50" as="geometry">
            <mxRectangle width="130" height="50" as="alternateBounds" />
          </mxGeometry>
        </mxCell>
        <mxCell id="e0a5-YHAyQoJP6cGDVqX-54" value="&lt;font style=&quot;font-size: 24px;&quot;&gt;c&lt;/font&gt;" style="rounded=0;whiteSpace=wrap;html=1;" parent="1" vertex="1">
          <mxGeometry x="440" y="640" width="120" height="50" as="geometry" />
        </mxCell>
        <mxCell id="e0a5-YHAyQoJP6cGDVqX-55" value="infinity" style="rounded=0;whiteSpace=wrap;html=1;" parent="1" vertex="1">
          <mxGeometry x="440" y="690" width="120" height="50" as="geometry" />
        </mxCell>
        <mxCell id="e0a5-YHAyQoJP6cGDVqX-56" value="7" style="rounded=0;whiteSpace=wrap;html=1;" parent="1" vertex="1">
          <mxGeometry x="440" y="740" width="120" height="50" as="geometry" />
        </mxCell>
        <mxCell id="e0a5-YHAyQoJP6cGDVqX-57" value="7" style="rounded=0;whiteSpace=wrap;html=1;" parent="1" vertex="1">
          <mxGeometry x="440" y="787" width="120" height="50" as="geometry" />
        </mxCell>
        <mxCell id="e0a5-YHAyQoJP6cGDVqX-58" value="&lt;font style=&quot;font-size: 24px;&quot;&gt;d&lt;/font&gt;" style="rounded=0;whiteSpace=wrap;html=1;" parent="1" vertex="1">
          <mxGeometry x="560" y="640" width="120" height="50" as="geometry" />
        </mxCell>
        <mxCell id="e0a5-YHAyQoJP6cGDVqX-59" value="infinity" style="rounded=0;whiteSpace=wrap;html=1;" parent="1" vertex="1">
          <mxGeometry x="560" y="690" width="120" height="50" as="geometry" />
        </mxCell>
        <mxCell id="e0a5-YHAyQoJP6cGDVqX-60" value="6" style="rounded=0;whiteSpace=wrap;html=1;" parent="1" vertex="1">
          <mxGeometry x="560" y="740" width="120" height="50" as="geometry" />
        </mxCell>
        <mxCell id="e0a5-YHAyQoJP6cGDVqX-61" value="6" style="rounded=0;whiteSpace=wrap;html=1;" parent="1" vertex="1">
          <mxGeometry x="560" y="787" width="120" height="50" as="geometry" />
        </mxCell>
        <mxCell id="e0a5-YHAyQoJP6cGDVqX-62" value="&lt;font style=&quot;font-size: 24px;&quot;&gt;e&lt;/font&gt;" style="rounded=0;whiteSpace=wrap;html=1;" parent="1" vertex="1">
          <mxGeometry x="680" y="640" width="120" height="50" as="geometry" />
        </mxCell>
        <mxCell id="e0a5-YHAyQoJP6cGDVqX-63" value="infinity" style="rounded=0;whiteSpace=wrap;html=1;" parent="1" vertex="1">
          <mxGeometry x="680" y="690" width="120" height="50" as="geometry" />
        </mxCell>
        <mxCell id="e0a5-YHAyQoJP6cGDVqX-64" value="5" style="rounded=0;whiteSpace=wrap;html=1;" parent="1" vertex="1">
          <mxGeometry x="680" y="740" width="120" height="50" as="geometry" />
        </mxCell>
        <mxCell id="e0a5-YHAyQoJP6cGDVqX-65" value="5" style="rounded=0;whiteSpace=wrap;html=1;" parent="1" vertex="1">
          <mxGeometry x="680" y="787" width="120" height="50" as="geometry" />
        </mxCell>
        <mxCell id="e0a5-YHAyQoJP6cGDVqX-66" value="&lt;font style=&quot;font-size: 24px;&quot;&gt;f&lt;/font&gt;" style="rounded=0;whiteSpace=wrap;html=1;" parent="1" vertex="1">
          <mxGeometry x="800" y="640" width="120" height="50" as="geometry" />
        </mxCell>
        <mxCell id="e0a5-YHAyQoJP6cGDVqX-67" value="infinity" style="rounded=0;whiteSpace=wrap;html=1;" parent="1" vertex="1">
          <mxGeometry x="800" y="690" width="120" height="50" as="geometry" />
        </mxCell>
        <mxCell id="e0a5-YHAyQoJP6cGDVqX-68" value="4" style="rounded=0;whiteSpace=wrap;html=1;" parent="1" vertex="1">
          <mxGeometry x="800" y="740" width="120" height="50" as="geometry" />
        </mxCell>
        <mxCell id="e0a5-YHAyQoJP6cGDVqX-69" value="4" style="rounded=0;whiteSpace=wrap;html=1;" parent="1" vertex="1">
          <mxGeometry x="800" y="787" width="120" height="50" as="geometry" />
        </mxCell>
        <mxCell id="e0a5-YHAyQoJP6cGDVqX-74" value="9" style="rounded=0;whiteSpace=wrap;html=1;" parent="1" vertex="1">
          <mxGeometry x="530" y="440" width="40" height="40" as="geometry" />
        </mxCell>
        <mxCell id="e0a5-YHAyQoJP6cGDVqX-75" value="" style="endArrow=none;html=1;rounded=0;strokeColor=#FF0080;" parent="1" edge="1">
          <mxGeometry width="50" height="50" relative="1" as="geometry">
            <mxPoint x="525" y="485" as="sourcePoint" />
            <mxPoint x="575" y="435" as="targetPoint" />
          </mxGeometry>
        </mxCell>
        <mxCell id="e0a5-YHAyQoJP6cGDVqX-76" value="6" style="rounded=0;whiteSpace=wrap;html=1;" parent="1" vertex="1">
          <mxGeometry x="530" y="490" width="40" height="40" as="geometry" />
        </mxCell>
        <mxCell id="e0a5-YHAyQoJP6cGDVqX-77" value="9" style="rounded=0;whiteSpace=wrap;html=1;" parent="1" vertex="1">
          <mxGeometry x="530" y="30" width="40" height="40" as="geometry" />
        </mxCell>
        <mxCell id="e0a5-YHAyQoJP6cGDVqX-78" value="5" style="rounded=0;whiteSpace=wrap;html=1;" parent="1" vertex="1">
          <mxGeometry x="530" y="-20" width="40" height="40" as="geometry" />
        </mxCell>
        <mxCell id="e0a5-YHAyQoJP6cGDVqX-79" value="" style="endArrow=none;html=1;rounded=0;strokeColor=#FF0080;" parent="1" edge="1">
          <mxGeometry width="50" height="50" relative="1" as="geometry">
            <mxPoint x="525" y="75" as="sourcePoint" />
            <mxPoint x="575" y="25" as="targetPoint" />
          </mxGeometry>
        </mxCell>
        <mxCell id="e0a5-YHAyQoJP6cGDVqX-83" value="" style="endArrow=classic;html=1;rounded=0;" parent="1" edge="1">
          <mxGeometry width="50" height="50" relative="1" as="geometry">
            <mxPoint x="294" y="400" as="sourcePoint" />
            <mxPoint x="486" y="400" as="targetPoint" />
          </mxGeometry>
        </mxCell>
        <mxCell id="e0a5-YHAyQoJP6cGDVqX-84" value="" style="endArrow=classic;html=1;rounded=0;" parent="1" edge="1">
          <mxGeometry width="50" height="50" relative="1" as="geometry">
            <mxPoint x="624" y="400" as="sourcePoint" />
            <mxPoint x="816" y="400" as="targetPoint" />
          </mxGeometry>
        </mxCell>
        <mxCell id="e0a5-YHAyQoJP6cGDVqX-85" value="1" style="text;html=1;strokeColor=none;fillColor=none;align=center;verticalAlign=middle;whiteSpace=wrap;rounded=0;" parent="1" vertex="1">
          <mxGeometry x="690" y="370" width="60" height="30" as="geometry" />
        </mxCell>
        <mxCell id="e0a5-YHAyQoJP6cGDVqX-86" value="-1" style="text;html=1;strokeColor=none;fillColor=none;align=center;verticalAlign=middle;whiteSpace=wrap;rounded=0;" parent="1" vertex="1">
          <mxGeometry x="700" y="220" width="60" height="30" as="geometry" />
        </mxCell>
        <mxCell id="e0a5-YHAyQoJP6cGDVqX-88" value="" style="endArrow=classic;html=1;rounded=0;" parent="1" edge="1">
          <mxGeometry width="50" height="50" relative="1" as="geometry">
            <mxPoint x="880" y="340" as="sourcePoint" />
            <mxPoint x="879.5" y="170" as="targetPoint" />
          </mxGeometry>
        </mxCell>
        <mxCell id="e0a5-YHAyQoJP6cGDVqX-90" value="8" style="rounded=0;whiteSpace=wrap;html=1;" parent="1" vertex="1">
          <mxGeometry x="860" y="30" width="40" height="40" as="geometry" />
        </mxCell>
        <mxCell id="e0a5-YHAyQoJP6cGDVqX-91" value="5" style="rounded=0;whiteSpace=wrap;html=1;" parent="1" vertex="1">
          <mxGeometry x="860" y="-20" width="40" height="40" as="geometry" />
        </mxCell>
        <mxCell id="e0a5-YHAyQoJP6cGDVqX-92" value="" style="endArrow=none;html=1;rounded=0;strokeColor=#FF0080;" parent="1" edge="1">
          <mxGeometry width="50" height="50" relative="1" as="geometry">
            <mxPoint x="855" y="75" as="sourcePoint" />
            <mxPoint x="905" y="25" as="targetPoint" />
          </mxGeometry>
        </mxCell>
      </root>
    </mxGraphModel>
  </diagram>
</mxfile>
